Coordinates
version=1
nRows=8
nColumns=46
inDegrees=yes

Units are S.I. units (second, meters, Newtons, ...)
Angles are in degrees.

endheader
time	pelvis_tilt	pelvis_list	pelvis_rotation	pelvis_tx	pelvis_ty	pelvis_tz	bb_angle	bb_tx	bb_ty	bb_tz	hip_flexion_r	hip_adduction_r	hip_rotation_r	knee_angle_r	knee_angle_r_beta	ankle_angle_r	subtalar_angle_r	mtp_angle_r	crank_angle_r	hip_flexion_l	hip_adduction_l	hip_rotation_l	knee_angle_l	knee_angle_l_beta	ankle_angle_l	subtalar_angle_l	mtp_angle_l	crank_angle_l	lumbar_extension	lumbar_bending	lumbar_rotation	arm_flex_r	arm_add_r	arm_rot_r	elbow_flex_r	pro_sup_r	wrist_flex_r	wrist_dev_r	arm_flex_l	arm_add_l	arm_rot_l	elbow_flex_l	pro_sup_l	wrist_flex_l	wrist_dev_l
      7.50500000	    -31.68415749	     -1.03859531	     -3.03400217	      0.31728088	      1.01323321	     -0.18442005	      0.00000000	      0.50000000	      0.00000000	      0.25000000	     78.27408131	     -2.51267715	      3.36936829	    111.91865166	      1.95334897	     -8.55497229	     -4.88197663	      0.00000000	      0.00000000	     40.15025400	     -8.37579287	     -3.64956604	     24.00420529	      0.41895242	     -6.54340893	     -2.54880664	      0.00000000	      0.00000000	    -37.05789484	      3.59605529	     -7.32099534	     72.71668274	     -8.86522162	     81.37079171	     44.99464955	     57.25693580	      0.00000000	      0.00000000	     35.62430221	    -35.62823560	     22.36380077	     84.05148395	     50.67466357	      0.00000000	      0.00000000
      7.51000000	    -31.89109118	     -1.19492223	     -3.69677247	      0.31655937	      1.01137431	     -0.18481802	      0.00000000	      0.50000000	      0.00000000	      0.25000000	     80.20519064	     -2.20932225	      3.38612636	    113.52011688	      1.98129981	     -7.22853863	     -4.93115549	      0.00000000	      0.00000000	     39.21904615	     -8.83721717	     -4.08420686	     23.07653857	      0.40276158	     -7.38888279	     -2.19965327	      0.00000000	      0.00000000	    -36.73357483	      3.78811591	     -6.74977833	     73.03501124	     -8.80690262	     81.38185557	     45.06577162	     57.29988837	      0.00000000	      0.00000000	     35.35691270	    -35.53812147	     22.29847773	     83.99315502	     50.66735580	      0.00000000	      0.00000000
      7.51500000	    -31.98477814	     -0.90742788	     -4.60352482	      0.31636786	      1.00968415	     -0.18467975	      0.00000000	      0.50000000	      0.00000000	      0.25000000	     82.06546483	     -1.79919485	      4.05571654	    115.06887101	      2.00833067	     -5.19777561	     -3.22312131	      0.00000000	      0.00000000	     38.03160087	     -9.10999710	     -5.30721525	     22.10916374	      0.38587770	     -8.45529491	     -1.88655220	      0.00000000	      0.00000000	    -36.42338880	      3.30506639	     -6.18065928	     73.02280776	     -9.03130015	     81.87484252	     45.30553728	     57.54764804	      0.00000000	      0.00000000	     34.90630610	    -34.99168271	     21.75469656	     83.76437199	     50.60332388	      0.00000000	      0.00000000
      7.52000000	    -32.02644600	     -0.69935704	     -5.47523398	      0.31644055	      1.00826044	     -0.18479507	      0.00000000	      0.50000000	      0.00000000	      0.25000000	     83.81655084	     -1.48500002	      4.47608717	    116.38190768	      2.03124748	     -3.68283847	     -2.21987296	      0.00000000	      0.00000000	     36.83324170	     -9.39606667	     -6.37902111	     21.29909153	      0.37173927	     -9.16041592	     -1.34749341	      0.00000000	      0.00000000	    -36.22606325	      2.94652586	     -5.55992641	     73.18705059	     -9.27297228	     82.25199246	     45.61859217	     57.80954799	      0.00000000	      0.00000000	     34.58425680	    -34.41038130	     21.23672910	     83.56927467	     50.54889625	      0.00000000	      0.00000000
      7.52500000	    -32.24205978	     -0.51427751	     -6.33353892	      0.31633837	      1.00661908	     -0.18437576	      0.00000000	      0.50000000	      0.00000000	      0.25000000	     85.76287124	     -1.06521236	      4.71764365	    117.50433776	      2.05083758	     -2.63067582	     -1.64821752	      0.00000000	      0.00000000	     35.92137350	     -9.78723675	     -7.50473648	     20.70104104	      0.36130132	     -9.73545102	     -0.59836835	      0.00000000	      0.00000000	    -35.88042878	      2.62794200	     -5.07982772	     73.34227847	     -9.29739338	     82.63054967	     45.89345765	     58.06317716	      0.00000000	      0.00000000	     34.41556086	    -33.69800252	     21.44465254	     83.46308934	     50.56776221	      0.00000000	      0.00000000
      7.53000000	    -32.34066096	     -0.44467255	     -6.95292603	      0.31596203	      1.00561421	     -0.18467544	      0.00000000	      0.50000000	      0.00000000	      0.25000000	     87.49804021	     -0.87581741	      4.76607924	    118.34320769	      2.06547862	     -1.97619997	     -1.48663712	      0.00000000	      0.00000000	     34.99118877	    -10.06172613	     -8.13416516	     20.17068975	      0.35204495	    -10.34029172	      0.01773292	      0.00000000	      0.00000000	    -35.68565180	      2.53367238	     -4.47537285	     73.57314135	     -9.57374563	     82.70981903	     46.00923294	     58.15334163	      0.00000000	      0.00000000	     34.22854901	    -33.84953335	     21.05527952	     83.20640842	     50.49806701	      0.00000000	      0.00000000
      7.53500000	    -32.50694858	     -0.02058782	     -7.67629924	      0.31580691	      1.00444470	     -0.18437817	      0.00000000	      0.50000000	      0.00000000	      0.25000000	     89.37679806	     -0.60781187	      5.11893668	    119.04360170	      2.07770280	     -1.45508387	     -1.08880711	      0.00000000	      0.00000000	     34.12689931	    -10.16973538	     -9.35554600	     19.75497594	      0.34478937	    -10.79353477	      1.04633684	      0.00000000	      0.00000000	    -35.37892612	      2.02637731	     -4.02254647	     73.62087061	     -9.70172131	     83.00419678	     46.35767186	     58.33465898	      0.00000000	      0.00000000	     33.94210946	    -33.49328712	     20.73899754	     83.00342093	     50.44895924	      0.00000000	      0.00000000
      7.54000000	    -32.47259248	      0.28055876	     -8.42985073	      0.31610582	      1.00398402	     -0.18402040	      0.00000000	      0.50000000	      0.00000000	      0.25000000	     90.86635735	     -0.26828876	      5.27598855	    119.47930110	      2.08530719	     -1.09822909	     -0.70695184	      0.00000000	      0.00000000	     33.11119165	    -10.44008792	    -10.71409939	     19.61471708	      0.34234139	    -10.76295516	      2.62242142	      0.00000000	      0.00000000	    -35.35459188	      1.53775981	     -3.15640842	     74.00596565	    -11.00210897	     83.81688187	     48.15625016	     59.48390717	      0.00000000	      0.00000000	     33.88811538	    -31.89249900	     19.25440263	     82.27354410	     50.29601250	      0.00000000	      0.00000000
